# xmcd
# 
# Track frame offsets:
#     182
#     17685
#     42802
#     62497
#     93692
#     112257
#     133642
#     153547
# 
# Disc length: 2393
# 
# Revision: 21
# Processed by: cddbd v1.5.2PL0 Copyright (c) Steve Scherf et al.
# Submitted via: BonkEnc v1.0.6
# 
DISCID=68095708
DTITLE=Black Sabbath - Heaven And Hell
DYEAR=1980
DGENRE=Heavy Metal
TTITLE0=Neon Knights
TTITLE1=Children Of The Sea
TTITLE2=Lady Evil
TTITLE3=Heaven And Hell
TTITLE4=Wishing Well
TTITLE5=Die Young
TTITLE6=Walk Away
TTITLE7=Lonely Is The Word
EXTD=YEAR: 1980
EXTT0=
EXTT1=
EXTT2=
EXTT3=
EXTT4=
EXTT5=
EXTT6=
EXTT7=
PLAYORDER=
